<svg xmlns="http://www.w3.org/2000/svg" viewBox="0 0 64 64" role="img" aria-label="ApplyForge">
  <rect width="64" height="64" rx="12" fill="#0A66C2"/>
  <!-- Document -->
  <path fill="#FFFFFF" d="M18 12h20l10 10v30a4 4 0 0 1-4 4H18a4 4 0 0 1-4-4V16a4 4 0 0 1 4-4z"/>
  <path fill="#D0E4FF" d="M38 12v8a2 2 0 0 0 2 2h8"/>
  <!-- Lines -->
  <rect x="22" y="28" width="20" height="3" rx="1.5" fill="#0A66C2" opacity="0.85"/>
  <rect x="22" y="35" width="16" height="3" rx="1.5" fill="#0A66C2" opacity="0.65"/>
  <rect x="22" y="42" width="12" height="3" rx="1.5" fill="#0A66C2" opacity="0.45"/>
  <!-- Forge spark -->
  <path fill="#FFD60A" d="M48 40l3.2 1.1L52.4 44l1.1-2.9L56.8 40l-3.3-1.1L52.4 36l-1.2 2.9z"/>
</svg>
